<svg width="24" height="24" viewBox="0 0 24 24" fill="none" xmlns="http://www.w3.org/2000/svg">
<g clip-path="url(#clip0_6963_14085)">
<path d="M17.4 3H6.6C4.61177 3 3 4.61177 3 6.6V17.4C3 19.3882 4.61177 21 6.6 21H17.4C19.3882 21 21 19.3882 21 17.4V6.6C21 4.61177 19.3882 3 17.4 3Z" stroke="#F15223" stroke-width="1.5" stroke-linecap="round" stroke-linejoin="round"/>
<path d="M6.25 17.75L8.75 15.25" stroke="#F15223" stroke-width="1.5" stroke-linecap="round" stroke-linejoin="round"/>
<path d="M8.75 17.75L6.25 15.25" stroke="#F15223" stroke-width="1.5" stroke-linecap="round" stroke-linejoin="round"/>
<path d="M15 7.5H18" stroke="#F15223" stroke-width="1.5" stroke-linecap="round" stroke-linejoin="round"/>
<path d="M15 15.1504H18" stroke="#F15223" stroke-width="1.5" stroke-linecap="round" stroke-linejoin="round"/>
<path d="M15 17.8496H18" stroke="#F15223" stroke-width="1.5" stroke-linecap="round" stroke-linejoin="round"/>
<path d="M12 3V21" stroke="#F15223" stroke-width="1.5" stroke-linecap="round" stroke-linejoin="round"/>
<path d="M3 12H21" stroke="#F15223" stroke-width="1.5" stroke-linecap="round" stroke-linejoin="round"/>
<path d="M14.7 3H9.29999" stroke="#F15223" stroke-width="1.5" stroke-linecap="round" stroke-linejoin="round"/>
<path d="M14.7 21H9.29999" stroke="#F15223" stroke-width="1.5" stroke-linecap="round" stroke-linejoin="round"/>
<path d="M3 13.7992V10.1992" stroke="#F15223" stroke-width="1.5" stroke-linecap="round" stroke-linejoin="round"/>
<path d="M21 13.7992V10.1992" stroke="#F15223" stroke-width="1.5" stroke-linecap="round" stroke-linejoin="round"/>
<path d="M6 7.5H9" stroke="#F15223" stroke-width="1.5" stroke-linecap="round" stroke-linejoin="round"/>
<path d="M7.5 9V6" stroke="#F15223" stroke-width="1.5" stroke-linecap="round" stroke-linejoin="round"/>
</g>
<defs>
<clipPath id="clip0_6963_14085">
<rect width="24" height="24" fill="white"/>
</clipPath>
</defs>
</svg>
