<svg width="32" height="32" viewBox="0 0 32 32" fill="none" xmlns="http://www.w3.org/2000/svg">
<g clip-path="url(#clip0_6806_46207)">
<path d="M17.3333 12H22.6666" stroke="white" stroke-width="1.5" stroke-linecap="round" stroke-linejoin="round"/>
<path d="M16 28H10.6667C8.89856 28 7.20286 27.2976 5.95262 26.0474C4.70238 24.7971 4 23.1014 4 21.3333V10.6667C4 8.89856 4.70238 7.20286 5.95262 5.95262C7.20286 4.70238 8.89856 4 10.6667 4H21.3333C23.1014 4 24.7971 4.70238 26.0474 5.95262C27.2976 7.20286 28 8.89856 28 10.6667V14.6667" stroke="white" stroke-width="1.5" stroke-linecap="round" stroke-linejoin="round"/>
<path d="M9.33325 11.6349L10.5586 12.7389L13.0253 10.5176" stroke="white" stroke-width="1.5" stroke-linecap="round" stroke-linejoin="round"/>
<path d="M9.33325 18.3009L10.5586 19.4049L13.0253 17.1836" stroke="white" stroke-width="1.5" stroke-linecap="round" stroke-linejoin="round"/>
<path d="M18.6667 20.9274V22.2474C18.6668 23.4348 19.0291 24.594 19.7055 25.57C20.3819 26.546 21.34 27.2923 22.4519 27.7093L23.1286 27.9631C23.2607 28.0126 23.4062 28.0126 23.5382 27.9631L24.215 27.7093C25.3268 27.2923 26.2849 26.546 26.9613 25.57C27.6377 24.594 28.0001 23.4349 28.0001 22.2474V20.9274C28.0001 20.6788 27.9207 20.4367 27.7734 20.2364C27.6261 20.036 27.4187 19.888 27.1814 19.8139L23.6814 18.7201C23.4548 18.6493 23.212 18.6493 22.9854 18.7201L19.4854 19.8139C19.2481 19.888 19.0407 20.036 18.8934 20.2363C18.7462 20.4366 18.6668 20.6788 18.6667 20.9274V20.9274Z" stroke="white" stroke-width="1.5" stroke-linecap="round" stroke-linejoin="round"/>
</g>
<defs>
<clipPath id="clip0_6806_46207">
<rect width="32" height="32" fill="white"/>
</clipPath>
</defs>
</svg>
