<svg width="64" height="64" viewBox="0 0 64 64" fill="none" xmlns="http://www.w3.org/2000/svg">
<g clip-path="url(#clip0_6906_14921)">
<path d="M22.8184 9.83179C28.6978 7.39691 35.3035 7.39723 41.1826 9.83268C47.0617 12.2681 51.7326 16.9392 54.1678 22.8185C56.6027 28.6978 56.6023 35.3036 54.1669 41.1827C51.7314 47.0618 47.0603 51.7326 41.1811 54.1678C38.2655 55.3988 35.1352 56.0408 31.9704 56.0569C28.8056 56.073 25.6689 55.4629 22.7409 54.2617C19.8129 53.0605 17.1514 51.2919 14.9098 49.0577C12.6682 46.8236 10.8907 44.1681 9.67966 41.2441C8.46864 38.3202 7.84803 35.1855 7.85355 32.0207C7.85908 28.8559 8.49064 25.7234 9.71187 22.8037C10.9331 19.8839 12.7199 17.2347 14.9693 15.0084C17.2187 12.7821 19.8863 11.0228 22.8184 9.83179" stroke="#05C1FF" stroke-width="1.5" stroke-linecap="round" stroke-linejoin="round"/>
<path d="M31.248 21.293V33.6956L40.9974 39.6396" stroke="#05C1FF" stroke-width="1.5" stroke-linecap="round" stroke-linejoin="round"/>
</g>
<defs>
<clipPath id="clip0_6906_14921">
<rect width="64" height="64" fill="white"/>
</clipPath>
</defs>
</svg>
