<svg width="24" height="24" viewBox="0 0 24 24" fill="none" xmlns="http://www.w3.org/2000/svg">
<path d="M12 13.5V12C12.3956 12 12.7822 11.8827 13.1111 11.6629C13.44 11.4432 13.6964 11.1308 13.8478 10.7654C13.9991 10.3999 14.0387 9.99778 13.9616 9.60982C13.8844 9.22186 13.6939 8.86549 13.4142 8.58579C13.1345 8.30608 12.7781 8.1156 12.3902 8.03843C12.0022 7.96126 11.6001 8.00087 11.2346 8.15224C10.8692 8.30362 10.5568 8.55996 10.3371 8.88886C10.1173 9.21776 10 9.60444 10 10" stroke="white" stroke-width="1.5" stroke-linecap="round" stroke-linejoin="round"/>
<path d="M12 21C16.9706 21 21 16.9706 21 12C21 7.02944 16.9706 3 12 3C7.02944 3 3 7.02944 3 12C3 16.9706 7.02944 21 12 21Z" stroke="white" stroke-width="1.5" stroke-linecap="round" stroke-linejoin="round"/>
<path d="M12 15.9502C11.9901 15.9502 11.9805 15.9531 11.9722 15.9586C11.964 15.9641 11.9576 15.9719 11.9538 15.9811C11.95 15.9902 11.949 16.0003 11.951 16.0099C11.9529 16.0196 11.9577 16.0286 11.9647 16.0356C11.9716 16.0425 11.9806 16.0473 11.9903 16.0492C12 16.0512 12.01 16.0502 12.0191 16.0464C12.0283 16.0426 12.0361 16.0362 12.0416 16.028C12.0471 16.0198 12.05 16.0101 12.05 16.0002C12.05 15.9869 12.0447 15.9742 12.0354 15.9648C12.026 15.9555 12.0133 15.9502 12 15.9502" stroke="white" stroke-width="1.5" stroke-linecap="round" stroke-linejoin="round"/>
</svg>
