<svg width="32" height="32" viewBox="0 0 32 32" fill="none" xmlns="http://www.w3.org/2000/svg">
<path d="M18.7053 5.51827L28.9173 23.3903C30.104 25.4676 28.604 28.0529 26.212 28.0529H5.78801C3.39468 28.0529 1.89468 25.4676 3.08268 23.3903L13.2947 5.51827C14.4907 3.4236 17.5093 3.4236 18.7053 5.51827Z" stroke="#FFAB1A" stroke-width="1.5" stroke-linecap="round" stroke-linejoin="round"/>
<path d="M16 17.4925V12.5059" stroke="#FFAB1A" stroke-width="1.5" stroke-linecap="round" stroke-linejoin="round"/>
<path d="M15.9985 21.333C15.9326 21.3333 15.8683 21.3531 15.8137 21.3898C15.759 21.4266 15.7165 21.4788 15.6915 21.5397C15.6665 21.6006 15.6601 21.6676 15.6731 21.7322C15.6861 21.7968 15.7179 21.856 15.7646 21.9025C15.8113 21.949 15.8707 21.9806 15.9353 21.9934C15.9999 22.0061 16.0669 21.9995 16.1277 21.9742C16.1885 21.9489 16.2405 21.9062 16.2771 21.8514C16.3137 21.7966 16.3332 21.7322 16.3332 21.6664C16.3333 21.6224 16.3248 21.5789 16.308 21.5383C16.2913 21.4977 16.2666 21.4608 16.2355 21.4298C16.2043 21.3988 16.1674 21.3743 16.1267 21.3576C16.086 21.341 16.0424 21.3327 15.9985 21.333" stroke="#FFAB1A" stroke-width="1.5" stroke-linecap="round" stroke-linejoin="round"/>
</svg>
